<?xml version="1.0" standalone="no"?>
<!DOCTYPE svg PUBLIC "-//W3C//DTD SVG 20010904//EN"
 "http://www.w3.org/TR/2001/REC-SVG-20010904/DTD/svg10.dtd">
<svg version="1.0" xmlns="http://www.w3.org/2000/svg"
 width="192.000000pt" height="192.000000pt" viewBox="0 0 192.000000 192.000000"
 preserveAspectRatio="xMidYMid meet">
<metadata>
Created by potrace 1.16, written by Peter Selinger 2001-2019
</metadata>
<g transform="translate(0.000000,192.000000) scale(0.100000,-0.100000)"
fill="#000000" stroke="none">
<path d="M789 1504 c-104 -33 -155 -63 -232 -137 -68 -65 -121 -151 -153 -247
-19 -57 -26 -218 -13 -290 32 -178 181 -355 354 -419 85 -32 89 -33 200 -37
216 -7 366 73 512 271 73 98 103 322 62 460 -18 61 -63 160 -79 175 -3 3 -20
24 -39 48 -48 62 -135 124 -226 162 -72 29 -92 33 -195 36 -100 3 -125 0 -191
-22z m-110 -487 c26 -60 51 -109 56 -109 6 0 33 50 60 111 l50 111 57 0 56 0
-101 -210 c-132 -273 -120 -272 -233 -20 -46 102 -89 195 -94 208 -10 23 -9
23 47 20 l56 -3 46 -108z m421 28 c0 -47 4 -85 8 -85 4 0 36 38 71 85 l63 85
60 0 c57 0 60 -1 46 -17 -53 -63 -128 -164 -128 -173 0 -6 38 -58 85 -115 47
-57 85 -106 85 -109 0 -3 -29 -6 -63 -6 l-64 0 -66 83 c-100 127 -97 127 -97
13 l0 -97 -52 3 -53 3 0 180 c-1 247 -4 235 56 235 l49 0 0 -85z"/>
</g>
</svg>
