<?xml version="1.0" standalone="no"?>
<!DOCTYPE svg PUBLIC "-//W3C//DTD SVG 20010904//EN"
 "http://www.w3.org/TR/2001/REC-SVG-20010904/DTD/svg10.dtd">
<svg version="1.0" xmlns="http://www.w3.org/2000/svg"
 width="198.000000pt" height="198.000000pt" viewBox="0 0 198.000000 198.000000"
 preserveAspectRatio="xMidYMid meet">
<metadata>
Created by potrace 1.16, written by Peter Selinger 2001-2019
</metadata>
<g transform="translate(0.000000,198.000000) scale(0.100000,-0.100000)"
fill="#000000" stroke="none">
<path d="M862 1565 c-268 -58 -472 -311 -472 -585 0 -323 277 -600 600 -600
275 0 528 206 585 475 43 204 -15 397 -164 546 -149 148 -347 208 -549 164z
m-157 -525 l53 -125 37 80 c20 44 46 101 57 128 l20 47 59 0 c33 0 59 -2 59
-4 0 -2 -48 -102 -106 -221 -98 -199 -108 -216 -131 -213 -21 3 -36 29 -119
213 -52 115 -94 213 -94 218 0 4 25 7 56 5 l56 -3 53 -125z m430 43 c0 -45 3
-84 6 -87 3 -4 37 34 74 84 l69 90 58 0 c32 0 58 -2 58 -5 0 -3 -34 -48 -74
-101 l-75 -96 95 -113 c51 -63 94 -116 94 -119 0 -3 -31 -6 -68 -6 l-68 0 -80
99 c-43 54 -81 97 -84 94 -3 -3 -5 -46 -5 -96 l0 -92 -55 0 -55 0 -2 210 c0
116 1 214 4 218 3 4 28 7 56 5 l52 -3 0 -82z"/>
</g>
</svg>
